<?xml version="1.0" encoding="UTF-8"?>
<svg width="27px" height="42px" viewBox="0 0 27 42" version="1.1" xmlns="http://www.w3.org/2000/svg" xmlns:xlink="http://www.w3.org/1999/xlink">
    <title>54DF9625-10B9-435A-8909-A9925DFC81EC</title>
    <defs>
        <polygon id="path-1" points="-2.27373675e-13 -4.54747351e-13 17 -4.54747351e-13 17 38 -2.27373675e-13 38"></polygon>
    </defs>
    <g id="Easter-Eggs" stroke="none" stroke-width="1" fill="none" fill-rule="evenodd">
        <g id="Easter-Egg---Impostor-Mode---Game-Detail-Among-Us" transform="translate(-1167.000000, -997.000000)">
            <g id="Group-3-Copy-2" transform="translate(1180.500000, 1018.000000) rotate(-345.000000) translate(-1180.500000, -1018.000000) translate(1172.000000, 999.000000)">
                <mask id="mask-2" fill="white">
                    <use xlink:href="#path-1"></use>
                </mask>
                <g id="Clip-2"></g>
                <path d="M12.6637216,37.9985238 C13.8181673,37.8079456 9.89234677,26.1035444 10.8027087,22.799401 C11.7129028,19.4952576 17.1294138,18.3380744 16.9976355,17.5502251 C16.8265754,16.5249807 15.0659491,18.3062326 10.8025409,16.4122731 C6.53930049,14.5181561 5.81913585,-0.124207205 4.60996432,0.000795692561 C3.40096065,0.125956223 7.16931865,12.2039474 5.90441409,15.7900961 C4.63984527,19.3762447 -0.149669253,19.0297676 0.00359655446,19.9825009 C0.164584407,20.9839428 3.30393147,19.7556672 6.87537733,22.8416466 C8.87454765,24.5691457 11.6682493,38.1627772 12.6637216,37.9985238" id="Fill-1" fill="#FF0000" mask="url(#mask-2)"></path>
            </g>
        </g>
    </g>
</svg>