<svg xmlns="http://www.w3.org/2000/svg" width="66" height="57" viewBox="0 0 66 57"><g><g><g><g transform="rotate(-15 3.55 27.54)"><path fill="#fffde9" d="M3.55 31.04a3.5 3.5 0 1 0 0-7 3.5 3.5 0 0 0 0 7z"/></g><g transform="rotate(-15 21.92 38.15)"><path fill="#d6d5d9" d="M21.92 40.65a2.5 2.5 0 1 0 0-5 2.5 2.5 0 0 0 0 5z"/></g><g transform="rotate(-15 5.71 54.91)"><path fill="#fffde9" d="M5.71 56.41a1.5 1.5 0 1 0 0-3 1.5 1.5 0 0 0 0 3z"/></g><g transform="rotate(-15 23.69 56.31)"><path fill="#fffde9" d="M23.69 56.81a.5.5 0 1 0 0-1 .5.5 0 0 0 0 1z"/></g></g><g><g transform="rotate(-75 48.72 3.38)"><path fill="#d6d5d9" d="M48.72 5.88a2.5 2.5 0 1 0 0-5 2.5 2.5 0 0 0 0 5z"/></g><g transform="rotate(-75 55.13 25.8)"><path fill="#fffde9" d="M55.13 27.3a1.5 1.5 0 1 0 0-3 1.5 1.5 0 0 0 0 3z"/></g><g transform="rotate(-75 65.33 10.93)"><path fill="#fffde9" d="M65.33 11.43a.5.5 0 1 0 0-1 .5.5 0 0 0 0 1z"/></g></g></g></g></svg>