<svg xmlns="http://www.w3.org/2000/svg" width="53" height="53" viewBox="0 0 53 53"><g><g><g transform="rotate(-120 6.85 46.29)"><path fill="#fffde9" d="M6.85 52.29a6 6 0 1 0 0-12 6 6 0 0 0 0 12z"/></g><g transform="rotate(-120 16 12.14)"><path fill="#d6d5d9" d="M16 16.14a4 4 0 1 0 0-8 4 4 0 0 0 0 8z"/></g><g transform="rotate(-120 50.5 30.91)"><path fill="#fffde9" d="M50.5 33.41a2.5 2.5 0 1 0 0-5 2.5 2.5 0 0 0 0 5z"/></g><g transform="rotate(-120 44.48 1.47)"><path fill="#fffde9" d="M44.48 2.47a1 1 0 1 0 0-2 1 1 0 0 0 0 2z"/></g></g></g></svg>